<?xml version="1.0" encoding="utf-8"?>
<!-- Generator: Adobe Illustrator 16.0.0, SVG Export Plug-In . SVG Version: 6.00 Build 0)  -->
<!DOCTYPE svg PUBLIC "-//W3C//DTD SVG 1.1//EN" "http://www.w3.org/Graphics/SVG/1.1/DTD/svg11.dtd">
<svg version="1.1" id="Layer_1" xmlns="http://www.w3.org/2000/svg" xmlns:xlink="http://www.w3.org/1999/xlink" x="0px" y="0px"
	 width="96px" height="96px" viewBox="0 0 96 96" enable-background="new 0 0 96 96" xml:space="preserve">
<path fill="none" stroke="#000000" stroke-width="4" stroke-miterlimit="10" d="M55.556,24.129c0,4.17-3.384,7.555-7.561,7.555
	c-4.168,0-7.553-3.385-7.553-7.555c0-4.176,3.385-7.56,7.553-7.56C52.172,16.57,55.556,19.954,55.556,24.129z"/>
<path fill="none" stroke="#000000" stroke-width="4" stroke-miterlimit="10" d="M55.556,46.87c0,4.175-3.384,7.559-7.555,7.559
	c-4.174,0-7.559-3.384-7.559-7.559c0-4.17,3.385-7.555,7.559-7.555C52.172,39.315,55.556,42.7,55.556,46.87z"/>
<path fill="none" stroke="#000000" stroke-width="4" stroke-miterlimit="10" d="M55.556,69.615c0,4.176-3.384,7.56-7.555,7.56
	c-4.174,0-7.559-3.384-7.559-7.56c0-4.17,3.385-7.553,7.559-7.553C52.172,62.063,55.556,65.445,55.556,69.615z"/>
<path fill="none" stroke="#000000" stroke-width="5" stroke-miterlimit="10" d="M67.499,39.315v-4.367
	c-0.003-0.003-0.006-0.005-0.008-0.007V10.882c0,0,0-2.269-2.482-3.846c0,0-6.666-4.996-17.01-4.688
	C37.655,2.04,30.99,7.036,30.99,7.036c-2.483,1.578-2.483,3.846-2.483,3.846v24.059c-0.003,0.002-0.006,0.004-0.008,0.007v4.367"/>
<path fill="none" stroke="#000000" stroke-width="5" stroke-miterlimit="10" d="M28.499,39.315v8.33v2v42.897v1.062
	c0,0.035,0.029,0.063,0.068,0.063h1.067h36.72h1.072c0.04,0,0.072-0.45,0.072-1V49.645v-2v-8.33"/>
</svg>
