<?xml version="1.0" encoding="utf-8"?>
<!-- Generator: Adobe Illustrator 16.0.0, SVG Export Plug-In . SVG Version: 6.00 Build 0)  -->
<!DOCTYPE svg PUBLIC "-//W3C//DTD SVG 1.1//EN" "http://www.w3.org/Graphics/SVG/1.1/DTD/svg11.dtd">
<svg version="1.1" xmlns="http://www.w3.org/2000/svg" xmlns:xlink="http://www.w3.org/1999/xlink" x="0px" y="0px" width="128px"
	 height="128px" viewBox="0 0 128 128" enable-background="new 0 0 128 128" xml:space="preserve">
<g id="Layer_1" display="none">
	
		<image display="inline" overflow="visible" width="128" height="128" xlink:href="D:\work\01_Android\73_[Android_2017]Samsung Connect_UX\@Data\[SmartThings][Android] OCF_Plugin_GUI_Guideline_v1.8_171114\PNG_xxxhdpi\0. Common\Icon\DA_Common_Icons_Set_01\+30s.png"  transform="matrix(1 0 0 1 0.5 -0.5)">
	</image>
</g>
<g id="Layer_2" display="none">
	
		<image display="inline" overflow="visible" width="64" height="59" xlink:href="21192496.jpg"  transform="matrix(0.9999 0 0 0.9999 33 35)">
	</image>
</g>
<g id="Layer_3">
	<g>
		<path d="M68.699,36.646c-0.423,0-1.05,0.125-1.637,0.72l-16.23,16.386H36.267c-1.425,0-2.583,1.159-2.583,2.584v17.36
			c0,1.425,1.159,2.584,2.583,2.584l14.557-0.009l16.239,16.394c0.588,0.595,1.215,0.72,1.637,0.72c0.74,0,1.413-0.383,1.799-1.024
			c0.217-0.364,0.327-0.783,0.327-1.243V38.915C70.825,37.441,69.729,36.646,68.699,36.646z M50.985,72.418H37.546V57.614h13.44
			c0.872,0,1.87-0.416,2.484-1.036l13.493-13.623v44.121l-13.49-13.62C52.86,72.835,51.861,72.418,50.985,72.418z"/>
		<path d="M77.4,49.91l-0.218-0.206l-2.657,2.804l0.218,0.207c3.476,3.293,5.391,7.662,5.391,12.301s-1.915,9.009-5.391,12.302
			l-0.218,0.206l2.657,2.805l0.218-0.206c4.254-4.03,6.596-9.396,6.596-15.106C83.996,59.304,81.654,53.939,77.4,49.91z"/>
		<path d="M84.377,42.719l-0.22-0.204l-2.627,2.831l0.22,0.204c5.613,5.208,8.704,12.122,8.704,19.465s-3.091,14.257-8.704,19.466
			l-0.22,0.204l2.627,2.832l0.22-0.204c6.41-5.948,9.939-13.867,9.939-22.299C94.316,56.584,90.786,48.666,84.377,42.719z"/>
	</g>
</g>
<g id="Layer_4" display="none">
	<path display="inline" fill-rule="evenodd" clip-rule="evenodd" d="M71.377,70.372V38.901c0-1.465-1.104-2.255-2.144-2.255
		c-0.425,0-1.057,0.124-1.651,0.713L52.769,52.069L39.784,39.298l-2.756,2.711l11.921,11.725H36.293
		c-1.439,0-2.609,1.153-2.609,2.571v17.341c0,1.418,1.17,2.571,2.609,2.571h14.799L67.58,92.588
		c0.594,0.592,1.227,0.717,1.652,0.717c0.747,0,1.425-0.381,1.813-1.018c0.221-0.361,0.332-0.778,0.332-1.238V75.792l12.457,12.252
		l2.756-2.711L71.377,70.372z M55.525,54.78l11.958-11.874v23.635L55.525,54.78z M37.577,57.572h13.666
		c0.417,0,0.871-0.097,1.322-0.281l14.919,14.672v15.08L53.753,73.41c-0.621-0.617-1.63-1.033-2.513-1.033H37.577V57.572z"/>
</g>
</svg>
